<mxfile host="app.diagrams.net" agent="Mozilla/5.0 (Windows NT 10.0; Win64; x64) AppleWebKit/537.36 (KHTML, like Gecko) Chrome/131.0.0.0 Safari/537.36" version="24.9.0">
  <diagram name="PÃ¡gina-1" id="0ekzHU6izNQ0DcV8A5S5">
    <mxGraphModel dx="1687" dy="889" grid="1" gridSize="10" guides="1" tooltips="1" connect="1" arrows="1" fold="1" page="1" pageScale="1" pageWidth="827" pageHeight="1169" math="0" shadow="0">
      <root>
        <mxCell id="0" />
        <mxCell id="1" parent="0" />
        <mxCell id="WuoT_bfYGDwhzo_1uAU9-14" value="" style="endArrow=classic;startArrow=classic;html=1;rounded=0;entryX=0.51;entryY=1.024;entryDx=0;entryDy=0;exitX=0.5;exitY=0;exitDx=0;exitDy=0;entryPerimeter=0;" edge="1" parent="1" source="WuoT_bfYGDwhzo_1uAU9-16" target="WuoT_bfYGDwhzo_1uAU9-15">
          <mxGeometry width="50" height="50" relative="1" as="geometry">
            <mxPoint x="159.64" y="127.48000000000002" as="sourcePoint" />
            <mxPoint x="160.36" y="90" as="targetPoint" />
          </mxGeometry>
        </mxCell>
        <mxCell id="WuoT_bfYGDwhzo_1uAU9-15" value="INICIO" style="ellipse;whiteSpace=wrap;html=1;" vertex="1" parent="1">
          <mxGeometry x="20" y="10" width="120" height="60" as="geometry" />
        </mxCell>
        <mxCell id="WuoT_bfYGDwhzo_1uAU9-16" value="&quot;Selccione&lt;div&gt;una Opcion&quot;&lt;/div&gt;" style="rounded=0;whiteSpace=wrap;html=1;" vertex="1" parent="1">
          <mxGeometry x="20" y="100" width="120" height="60" as="geometry" />
        </mxCell>
        <mxCell id="WuoT_bfYGDwhzo_1uAU9-17" value="&lt;font style=&quot;font-size: 9px;&quot;&gt;Opc 1:Agregar&lt;/font&gt;" style="rhombus;whiteSpace=wrap;html=1;" vertex="1" parent="1">
          <mxGeometry x="80" y="200" width="80" height="40" as="geometry" />
        </mxCell>
        <mxCell id="WuoT_bfYGDwhzo_1uAU9-18" value="&lt;span style=&quot;font-size: 9px;&quot;&gt;Opc 2:Editar&lt;/span&gt;" style="rhombus;whiteSpace=wrap;html=1;" vertex="1" parent="1">
          <mxGeometry x="80" y="280" width="80" height="40" as="geometry" />
        </mxCell>
        <mxCell id="WuoT_bfYGDwhzo_1uAU9-19" value="&lt;span style=&quot;font-size: 9px;&quot;&gt;Opc 3:Eliminar&lt;/span&gt;" style="rhombus;whiteSpace=wrap;html=1;" vertex="1" parent="1">
          <mxGeometry x="80" y="360" width="80" height="40" as="geometry" />
        </mxCell>
        <mxCell id="WuoT_bfYGDwhzo_1uAU9-20" value="&lt;span style=&quot;font-size: 9px;&quot;&gt;Opc 4:Resumen&lt;/span&gt;" style="rhombus;whiteSpace=wrap;html=1;" vertex="1" parent="1">
          <mxGeometry x="80" y="440" width="80" height="40" as="geometry" />
        </mxCell>
        <mxCell id="WuoT_bfYGDwhzo_1uAU9-24" value="" style="endArrow=none;html=1;rounded=0;entryX=0.18;entryY=1.038;entryDx=0;entryDy=0;entryPerimeter=0;" edge="1" parent="1" target="WuoT_bfYGDwhzo_1uAU9-16">
          <mxGeometry width="50" height="50" relative="1" as="geometry">
            <mxPoint x="40" y="540" as="sourcePoint" />
            <mxPoint x="60" y="210" as="targetPoint" />
          </mxGeometry>
        </mxCell>
        <mxCell id="WuoT_bfYGDwhzo_1uAU9-25" value="" style="endArrow=classic;html=1;rounded=0;entryX=0;entryY=0.5;entryDx=0;entryDy=0;" edge="1" parent="1" target="WuoT_bfYGDwhzo_1uAU9-20">
          <mxGeometry width="50" height="50" relative="1" as="geometry">
            <mxPoint x="40" y="460" as="sourcePoint" />
            <mxPoint x="90" y="420" as="targetPoint" />
          </mxGeometry>
        </mxCell>
        <mxCell id="WuoT_bfYGDwhzo_1uAU9-26" value="" style="endArrow=classic;html=1;rounded=0;entryX=0;entryY=0.5;entryDx=0;entryDy=0;" edge="1" parent="1">
          <mxGeometry width="50" height="50" relative="1" as="geometry">
            <mxPoint x="40" y="379.71" as="sourcePoint" />
            <mxPoint x="80" y="379.71" as="targetPoint" />
          </mxGeometry>
        </mxCell>
        <mxCell id="WuoT_bfYGDwhzo_1uAU9-27" value="" style="endArrow=classic;html=1;rounded=0;entryX=0;entryY=0.5;entryDx=0;entryDy=0;" edge="1" parent="1">
          <mxGeometry width="50" height="50" relative="1" as="geometry">
            <mxPoint x="40" y="299.71000000000004" as="sourcePoint" />
            <mxPoint x="80" y="299.71000000000004" as="targetPoint" />
          </mxGeometry>
        </mxCell>
        <mxCell id="WuoT_bfYGDwhzo_1uAU9-28" value="" style="endArrow=classic;html=1;rounded=0;entryX=0;entryY=0.5;entryDx=0;entryDy=0;" edge="1" parent="1">
          <mxGeometry width="50" height="50" relative="1" as="geometry">
            <mxPoint x="40" y="219.70999999999998" as="sourcePoint" />
            <mxPoint x="80" y="219.70999999999998" as="targetPoint" />
          </mxGeometry>
        </mxCell>
        <mxCell id="WuoT_bfYGDwhzo_1uAU9-36" value="Fin" style="ellipse;fillColor=#FFFFFF;strokeColor=black" vertex="1" parent="1">
          <mxGeometry x="20" y="1010" width="120" height="40" as="geometry" />
        </mxCell>
        <mxCell id="WuoT_bfYGDwhzo_1uAU9-43" value="&lt;span style=&quot;font-size: 9px;&quot;&gt;Opc 5:Salir&lt;/span&gt;" style="rhombus;whiteSpace=wrap;html=1;" vertex="1" parent="1">
          <mxGeometry x="80" y="740" width="80" height="40" as="geometry" />
        </mxCell>
        <mxCell id="WuoT_bfYGDwhzo_1uAU9-44" value="" style="endArrow=classic;html=1;rounded=0;entryX=0;entryY=0.5;entryDx=0;entryDy=0;" edge="1" parent="1" target="WuoT_bfYGDwhzo_1uAU9-43">
          <mxGeometry width="50" height="50" relative="1" as="geometry">
            <mxPoint x="40" y="539.76" as="sourcePoint" />
            <mxPoint x="80" y="539.76" as="targetPoint" />
            <Array as="points">
              <mxPoint x="40" y="700" />
              <mxPoint x="40" y="760" />
            </Array>
          </mxGeometry>
        </mxCell>
        <mxCell id="WuoT_bfYGDwhzo_1uAU9-45" value="&lt;span style=&quot;font-size: 6px;&quot;&gt;Ingresar Caracteristicas:&lt;/span&gt;" style="rounded=1;whiteSpace=wrap;html=1;" vertex="1" parent="1">
          <mxGeometry x="210" y="140" width="90" height="30" as="geometry" />
        </mxCell>
        <mxCell id="WuoT_bfYGDwhzo_1uAU9-46" value="" style="endArrow=classic;html=1;rounded=0;exitX=1;exitY=0.5;exitDx=0;exitDy=0;entryX=0;entryY=0.5;entryDx=0;entryDy=0;" edge="1" parent="1" source="WuoT_bfYGDwhzo_1uAU9-17" target="WuoT_bfYGDwhzo_1uAU9-45">
          <mxGeometry width="50" height="50" relative="1" as="geometry">
            <mxPoint x="230" y="220" as="sourcePoint" />
            <mxPoint x="280" y="170" as="targetPoint" />
            <Array as="points">
              <mxPoint x="160" y="155" />
            </Array>
          </mxGeometry>
        </mxCell>
        <mxCell id="WuoT_bfYGDwhzo_1uAU9-47" value="&lt;font style=&quot;font-size: 8px;&quot;&gt;Leer y &quot;Guardar&quot;&lt;/font&gt;&lt;div&gt;&lt;font style=&quot;font-size: 8px;&quot;&gt;total_productos++&lt;/font&gt;&lt;/div&gt;" style="rounded=1;whiteSpace=wrap;html=1;" vertex="1" parent="1">
          <mxGeometry x="270" y="240" width="90" height="30" as="geometry" />
        </mxCell>
        <mxCell id="WuoT_bfYGDwhzo_1uAU9-48" value="" style="endArrow=classic;html=1;rounded=0;exitX=0.5;exitY=1;exitDx=0;exitDy=0;entryX=0.5;entryY=0;entryDx=0;entryDy=0;" edge="1" parent="1" source="WuoT_bfYGDwhzo_1uAU9-45" target="WuoT_bfYGDwhzo_1uAU9-49">
          <mxGeometry width="50" height="50" relative="1" as="geometry">
            <mxPoint x="215" y="200" as="sourcePoint" />
            <mxPoint x="315" y="190" as="targetPoint" />
          </mxGeometry>
        </mxCell>
        <mxCell id="WuoT_bfYGDwhzo_1uAU9-49" value="&lt;font style=&quot;font-size: 8px;&quot;&gt;Nombre Existe?&lt;/font&gt;" style="rhombus;whiteSpace=wrap;html=1;" vertex="1" parent="1">
          <mxGeometry x="215" y="190" width="80" height="40" as="geometry" />
        </mxCell>
        <mxCell id="WuoT_bfYGDwhzo_1uAU9-50" value="" style="endArrow=classic;html=1;rounded=0;exitX=1;exitY=0.5;exitDx=0;exitDy=0;entryX=0.554;entryY=-0.024;entryDx=0;entryDy=0;entryPerimeter=0;" edge="1" parent="1" source="WuoT_bfYGDwhzo_1uAU9-49" target="WuoT_bfYGDwhzo_1uAU9-47">
          <mxGeometry width="50" height="50" relative="1" as="geometry">
            <mxPoint x="300" y="230" as="sourcePoint" />
            <mxPoint x="350" y="180" as="targetPoint" />
            <Array as="points">
              <mxPoint x="320" y="210" />
            </Array>
          </mxGeometry>
        </mxCell>
        <mxCell id="WuoT_bfYGDwhzo_1uAU9-52" value="NO" style="text;html=1;align=center;verticalAlign=middle;whiteSpace=wrap;rounded=0;" vertex="1" parent="1">
          <mxGeometry x="285" y="190" width="60" height="30" as="geometry" />
        </mxCell>
        <mxCell id="WuoT_bfYGDwhzo_1uAU9-54" value="" style="endArrow=classic;html=1;rounded=0;exitX=0;exitY=0.5;exitDx=0;exitDy=0;entryX=0.569;entryY=0.024;entryDx=0;entryDy=0;entryPerimeter=0;" edge="1" parent="1" source="WuoT_bfYGDwhzo_1uAU9-49" target="WuoT_bfYGDwhzo_1uAU9-56">
          <mxGeometry width="50" height="50" relative="1" as="geometry">
            <mxPoint x="180" y="280" as="sourcePoint" />
            <mxPoint x="200" y="230" as="targetPoint" />
            <Array as="points">
              <mxPoint x="200" y="210" />
            </Array>
          </mxGeometry>
        </mxCell>
        <mxCell id="WuoT_bfYGDwhzo_1uAU9-56" value="&lt;font style=&quot;font-size: 8px;&quot;&gt;Error: Nombre ya existe&lt;/font&gt;" style="rounded=1;whiteSpace=wrap;html=1;" vertex="1" parent="1">
          <mxGeometry x="160" y="235" width="70" height="30" as="geometry" />
        </mxCell>
        <mxCell id="WuoT_bfYGDwhzo_1uAU9-58" value="SI" style="text;html=1;align=center;verticalAlign=middle;whiteSpace=wrap;rounded=0;" vertex="1" parent="1">
          <mxGeometry x="180" y="190" width="60" height="30" as="geometry" />
        </mxCell>
        <mxCell id="WuoT_bfYGDwhzo_1uAU9-59" value="&lt;font style=&quot;font-size: 9px;&quot;&gt;Leer nombre producto a cambiar&lt;/font&gt;" style="rounded=1;whiteSpace=wrap;html=1;" vertex="1" parent="1">
          <mxGeometry x="370" y="285" width="87.5" height="30" as="geometry" />
        </mxCell>
        <mxCell id="WuoT_bfYGDwhzo_1uAU9-60" value="" style="endArrow=classic;html=1;rounded=0;exitX=1;exitY=0.5;exitDx=0;exitDy=0;entryX=0;entryY=0.5;entryDx=0;entryDy=0;" edge="1" parent="1" source="WuoT_bfYGDwhzo_1uAU9-18" target="WuoT_bfYGDwhzo_1uAU9-59">
          <mxGeometry width="50" height="50" relative="1" as="geometry">
            <mxPoint x="140" y="365" as="sourcePoint" />
            <mxPoint x="190" y="315" as="targetPoint" />
          </mxGeometry>
        </mxCell>
        <mxCell id="WuoT_bfYGDwhzo_1uAU9-63" value="" style="endArrow=classic;html=1;rounded=0;exitX=0.5;exitY=1;exitDx=0;exitDy=0;entryX=0.069;entryY=1.029;entryDx=0;entryDy=0;entryPerimeter=0;" edge="1" parent="1" source="WuoT_bfYGDwhzo_1uAU9-47" target="WuoT_bfYGDwhzo_1uAU9-16">
          <mxGeometry width="50" height="50" relative="1" as="geometry">
            <mxPoint x="280" y="325" as="sourcePoint" />
            <mxPoint x="340" y="119.3103448275862" as="targetPoint" />
            <Array as="points">
              <mxPoint x="315" y="280" />
              <mxPoint x="30" y="280" />
            </Array>
          </mxGeometry>
        </mxCell>
        <mxCell id="WuoT_bfYGDwhzo_1uAU9-67" value="&lt;span style=&quot;font-size: 8px;&quot;&gt;&quot;Producto no Encontrado&quot;&lt;/span&gt;" style="rounded=1;whiteSpace=wrap;html=1;" vertex="1" parent="1">
          <mxGeometry x="590" y="290" width="90" height="20" as="geometry" />
        </mxCell>
        <mxCell id="WuoT_bfYGDwhzo_1uAU9-69" value="&lt;font style=&quot;font-size: 8px;&quot;&gt;Nombre Existe?&lt;/font&gt;" style="rhombus;whiteSpace=wrap;html=1;" vertex="1" parent="1">
          <mxGeometry x="535" y="240" width="80" height="40" as="geometry" />
        </mxCell>
        <mxCell id="WuoT_bfYGDwhzo_1uAU9-70" value="" style="endArrow=classic;html=1;rounded=0;exitX=1;exitY=0.5;exitDx=0;exitDy=0;entryX=0.554;entryY=-0.024;entryDx=0;entryDy=0;entryPerimeter=0;" edge="1" parent="1" source="WuoT_bfYGDwhzo_1uAU9-69" target="WuoT_bfYGDwhzo_1uAU9-67">
          <mxGeometry width="50" height="50" relative="1" as="geometry">
            <mxPoint x="620" y="280" as="sourcePoint" />
            <mxPoint x="670" y="230" as="targetPoint" />
            <Array as="points">
              <mxPoint x="640" y="260" />
            </Array>
          </mxGeometry>
        </mxCell>
        <mxCell id="WuoT_bfYGDwhzo_1uAU9-71" value="NO" style="text;html=1;align=center;verticalAlign=middle;whiteSpace=wrap;rounded=0;" vertex="1" parent="1">
          <mxGeometry x="605" y="240" width="60" height="30" as="geometry" />
        </mxCell>
        <mxCell id="WuoT_bfYGDwhzo_1uAU9-72" value="" style="endArrow=classic;html=1;rounded=0;exitX=0;exitY=0.5;exitDx=0;exitDy=0;entryX=0.569;entryY=0.024;entryDx=0;entryDy=0;entryPerimeter=0;" edge="1" parent="1" source="WuoT_bfYGDwhzo_1uAU9-69" target="WuoT_bfYGDwhzo_1uAU9-73">
          <mxGeometry width="50" height="50" relative="1" as="geometry">
            <mxPoint x="500" y="330" as="sourcePoint" />
            <mxPoint x="520" y="280" as="targetPoint" />
            <Array as="points">
              <mxPoint x="520" y="260" />
            </Array>
          </mxGeometry>
        </mxCell>
        <mxCell id="WuoT_bfYGDwhzo_1uAU9-73" value="&lt;span style=&quot;font-size: 8px;&quot;&gt;Ingresar: Nuevas&lt;/span&gt;&lt;div&gt;&lt;span style=&quot;font-size: 8px;&quot;&gt;Caracteristicas&lt;/span&gt;&lt;/div&gt;" style="rounded=1;whiteSpace=wrap;html=1;" vertex="1" parent="1">
          <mxGeometry x="480" y="285" width="70" height="30" as="geometry" />
        </mxCell>
        <mxCell id="WuoT_bfYGDwhzo_1uAU9-74" value="SI" style="text;html=1;align=center;verticalAlign=middle;whiteSpace=wrap;rounded=0;" vertex="1" parent="1">
          <mxGeometry x="500" y="240" width="60" height="30" as="geometry" />
        </mxCell>
        <mxCell id="WuoT_bfYGDwhzo_1uAU9-76" value="" style="endArrow=classic;html=1;rounded=0;exitX=0.421;exitY=0.007;exitDx=0;exitDy=0;exitPerimeter=0;entryX=0.5;entryY=0;entryDx=0;entryDy=0;" edge="1" parent="1" source="WuoT_bfYGDwhzo_1uAU9-59" target="WuoT_bfYGDwhzo_1uAU9-69">
          <mxGeometry width="50" height="50" relative="1" as="geometry">
            <mxPoint x="485" y="210" as="sourcePoint" />
            <mxPoint x="535" y="160" as="targetPoint" />
            <Array as="points">
              <mxPoint x="410" y="210" />
              <mxPoint x="575" y="210" />
            </Array>
          </mxGeometry>
        </mxCell>
        <mxCell id="WuoT_bfYGDwhzo_1uAU9-78" value="&lt;font style=&quot;font-size: 8px;&quot;&gt;Leer y &quot;Guardar&quot;&lt;/font&gt;" style="rounded=1;whiteSpace=wrap;html=1;" vertex="1" parent="1">
          <mxGeometry x="470" y="330" width="90" height="20" as="geometry" />
        </mxCell>
        <mxCell id="WuoT_bfYGDwhzo_1uAU9-79" value="" style="endArrow=classic;html=1;rounded=0;exitX=0.5;exitY=1;exitDx=0;exitDy=0;" edge="1" parent="1" source="WuoT_bfYGDwhzo_1uAU9-73" target="WuoT_bfYGDwhzo_1uAU9-78">
          <mxGeometry width="50" height="50" relative="1" as="geometry">
            <mxPoint x="450" y="420" as="sourcePoint" />
            <mxPoint x="500" y="370" as="targetPoint" />
          </mxGeometry>
        </mxCell>
        <mxCell id="WuoT_bfYGDwhzo_1uAU9-81" value="" style="endArrow=classic;html=1;rounded=0;exitX=0.5;exitY=1;exitDx=0;exitDy=0;" edge="1" parent="1" source="WuoT_bfYGDwhzo_1uAU9-67">
          <mxGeometry width="50" height="50" relative="1" as="geometry">
            <mxPoint x="630" y="380" as="sourcePoint" />
            <mxPoint x="30" y="280" as="targetPoint" />
            <Array as="points">
              <mxPoint x="635" y="360" />
              <mxPoint x="30" y="360" />
            </Array>
          </mxGeometry>
        </mxCell>
        <mxCell id="WuoT_bfYGDwhzo_1uAU9-85" value="" style="endArrow=classic;html=1;rounded=0;exitX=0.5;exitY=1;exitDx=0;exitDy=0;" edge="1" parent="1" source="WuoT_bfYGDwhzo_1uAU9-56">
          <mxGeometry width="50" height="50" relative="1" as="geometry">
            <mxPoint x="320" y="360" as="sourcePoint" />
            <mxPoint x="195" y="280" as="targetPoint" />
          </mxGeometry>
        </mxCell>
        <mxCell id="WuoT_bfYGDwhzo_1uAU9-86" value="" style="endArrow=classic;html=1;rounded=0;exitX=0;exitY=0.5;exitDx=0;exitDy=0;" edge="1" parent="1" source="WuoT_bfYGDwhzo_1uAU9-78">
          <mxGeometry width="50" height="50" relative="1" as="geometry">
            <mxPoint x="205" y="275" as="sourcePoint" />
            <mxPoint x="360" y="360" as="targetPoint" />
            <Array as="points">
              <mxPoint x="360" y="340" />
            </Array>
          </mxGeometry>
        </mxCell>
        <mxCell id="WuoT_bfYGDwhzo_1uAU9-87" value="&lt;font style=&quot;font-size: 9px;&quot;&gt;Leer nombre producto a eliminar&lt;/font&gt;" style="rounded=1;whiteSpace=wrap;html=1;" vertex="1" parent="1">
          <mxGeometry x="420" y="390" width="87.5" height="30" as="geometry" />
        </mxCell>
        <mxCell id="WuoT_bfYGDwhzo_1uAU9-88" value="&lt;span style=&quot;font-size: 8px;&quot;&gt;&quot;Producto no Encontrado&quot;&lt;/span&gt;" style="rounded=1;whiteSpace=wrap;html=1;" vertex="1" parent="1">
          <mxGeometry x="640" y="460" width="90" height="20" as="geometry" />
        </mxCell>
        <mxCell id="WuoT_bfYGDwhzo_1uAU9-89" value="&lt;font style=&quot;font-size: 8px;&quot;&gt;Nombre Existe?&lt;/font&gt;" style="rhombus;whiteSpace=wrap;html=1;" vertex="1" parent="1">
          <mxGeometry x="585" y="410" width="80" height="40" as="geometry" />
        </mxCell>
        <mxCell id="WuoT_bfYGDwhzo_1uAU9-90" value="" style="endArrow=classic;html=1;rounded=0;exitX=1;exitY=0.5;exitDx=0;exitDy=0;entryX=0.554;entryY=-0.024;entryDx=0;entryDy=0;entryPerimeter=0;" edge="1" parent="1" source="WuoT_bfYGDwhzo_1uAU9-89" target="WuoT_bfYGDwhzo_1uAU9-88">
          <mxGeometry width="50" height="50" relative="1" as="geometry">
            <mxPoint x="670" y="450" as="sourcePoint" />
            <mxPoint x="720" y="400" as="targetPoint" />
            <Array as="points">
              <mxPoint x="690" y="430" />
            </Array>
          </mxGeometry>
        </mxCell>
        <mxCell id="WuoT_bfYGDwhzo_1uAU9-91" value="NO" style="text;html=1;align=center;verticalAlign=middle;whiteSpace=wrap;rounded=0;" vertex="1" parent="1">
          <mxGeometry x="655" y="410" width="60" height="30" as="geometry" />
        </mxCell>
        <mxCell id="WuoT_bfYGDwhzo_1uAU9-92" value="" style="endArrow=classic;html=1;rounded=0;exitX=0;exitY=0.5;exitDx=0;exitDy=0;entryX=0.569;entryY=0.024;entryDx=0;entryDy=0;entryPerimeter=0;" edge="1" parent="1" source="WuoT_bfYGDwhzo_1uAU9-89" target="WuoT_bfYGDwhzo_1uAU9-93">
          <mxGeometry width="50" height="50" relative="1" as="geometry">
            <mxPoint x="550" y="500" as="sourcePoint" />
            <mxPoint x="570" y="450" as="targetPoint" />
            <Array as="points">
              <mxPoint x="570" y="430" />
            </Array>
          </mxGeometry>
        </mxCell>
        <mxCell id="WuoT_bfYGDwhzo_1uAU9-93" value="&lt;span style=&quot;font-size: 8px;&quot;&gt;Eliminar Prodcuto&lt;/span&gt;&lt;div&gt;&lt;span style=&quot;font-size: 8px;&quot;&gt;(MOVER)&lt;/span&gt;&lt;/div&gt;" style="rounded=1;whiteSpace=wrap;html=1;" vertex="1" parent="1">
          <mxGeometry x="530" y="455" width="70" height="30" as="geometry" />
        </mxCell>
        <mxCell id="WuoT_bfYGDwhzo_1uAU9-94" value="SI" style="text;html=1;align=center;verticalAlign=middle;whiteSpace=wrap;rounded=0;" vertex="1" parent="1">
          <mxGeometry x="550" y="410" width="60" height="30" as="geometry" />
        </mxCell>
        <mxCell id="WuoT_bfYGDwhzo_1uAU9-95" value="" style="endArrow=classic;html=1;rounded=0;exitX=0.421;exitY=0.007;exitDx=0;exitDy=0;exitPerimeter=0;entryX=0.5;entryY=0;entryDx=0;entryDy=0;" edge="1" parent="1" source="WuoT_bfYGDwhzo_1uAU9-87" target="WuoT_bfYGDwhzo_1uAU9-89">
          <mxGeometry width="50" height="50" relative="1" as="geometry">
            <mxPoint x="535" y="380" as="sourcePoint" />
            <mxPoint x="585" y="330" as="targetPoint" />
            <Array as="points">
              <mxPoint x="457" y="380" />
              <mxPoint x="625" y="380" />
            </Array>
          </mxGeometry>
        </mxCell>
        <mxCell id="WuoT_bfYGDwhzo_1uAU9-96" value="&lt;font style=&quot;font-size: 8px;&quot;&gt;Guardar&lt;/font&gt;&lt;div&gt;&lt;font style=&quot;font-size: 8px;&quot;&gt;total_prductos -1&lt;/font&gt;&lt;/div&gt;" style="rounded=1;whiteSpace=wrap;html=1;" vertex="1" parent="1">
          <mxGeometry x="520" y="500" width="90" height="30" as="geometry" />
        </mxCell>
        <mxCell id="WuoT_bfYGDwhzo_1uAU9-97" value="" style="endArrow=classic;html=1;rounded=0;exitX=0.5;exitY=1;exitDx=0;exitDy=0;" edge="1" parent="1" source="WuoT_bfYGDwhzo_1uAU9-93" target="WuoT_bfYGDwhzo_1uAU9-96">
          <mxGeometry width="50" height="50" relative="1" as="geometry">
            <mxPoint x="500" y="590" as="sourcePoint" />
            <mxPoint x="550" y="540" as="targetPoint" />
          </mxGeometry>
        </mxCell>
        <mxCell id="WuoT_bfYGDwhzo_1uAU9-100" value="" style="endArrow=classic;html=1;rounded=0;exitX=0;exitY=0.5;exitDx=0;exitDy=0;" edge="1" parent="1" source="WuoT_bfYGDwhzo_1uAU9-96">
          <mxGeometry width="50" height="50" relative="1" as="geometry">
            <mxPoint x="370" y="520" as="sourcePoint" />
            <mxPoint x="30" y="360" as="targetPoint" />
            <Array as="points">
              <mxPoint x="430" y="515" />
              <mxPoint x="430" y="430" />
              <mxPoint x="30" y="430" />
            </Array>
          </mxGeometry>
        </mxCell>
        <mxCell id="WuoT_bfYGDwhzo_1uAU9-101" value="" style="endArrow=classic;html=1;rounded=0;exitX=1;exitY=0.5;exitDx=0;exitDy=0;entryX=0;entryY=0.5;entryDx=0;entryDy=0;" edge="1" parent="1" source="WuoT_bfYGDwhzo_1uAU9-19" target="WuoT_bfYGDwhzo_1uAU9-87">
          <mxGeometry width="50" height="50" relative="1" as="geometry">
            <mxPoint x="320" y="430" as="sourcePoint" />
            <mxPoint x="370" y="380" as="targetPoint" />
            <Array as="points">
              <mxPoint x="400" y="380" />
              <mxPoint x="400" y="405" />
            </Array>
          </mxGeometry>
        </mxCell>
        <mxCell id="WuoT_bfYGDwhzo_1uAU9-102" value="" style="endArrow=classic;html=1;rounded=0;exitX=0.5;exitY=1;exitDx=0;exitDy=0;" edge="1" parent="1" source="WuoT_bfYGDwhzo_1uAU9-88">
          <mxGeometry width="50" height="50" relative="1" as="geometry">
            <mxPoint x="715" y="570" as="sourcePoint" />
            <mxPoint x="460" y="520" as="targetPoint" />
            <Array as="points">
              <mxPoint x="685" y="540" />
              <mxPoint x="460" y="540" />
              <mxPoint x="460" y="530" />
            </Array>
          </mxGeometry>
        </mxCell>
        <mxCell id="WuoT_bfYGDwhzo_1uAU9-103" value="Mostrar titulos tabla de datos" style="rounded=1;whiteSpace=wrap;html=1;" vertex="1" parent="1">
          <mxGeometry x="215" y="440" width="95" height="40" as="geometry" />
        </mxCell>
        <mxCell id="WuoT_bfYGDwhzo_1uAU9-106" value="" style="endArrow=classic;html=1;rounded=0;exitX=1;exitY=0.5;exitDx=0;exitDy=0;entryX=0;entryY=0.5;entryDx=0;entryDy=0;" edge="1" parent="1" source="WuoT_bfYGDwhzo_1uAU9-20" target="WuoT_bfYGDwhzo_1uAU9-103">
          <mxGeometry width="50" height="50" relative="1" as="geometry">
            <mxPoint x="260" y="530" as="sourcePoint" />
            <mxPoint x="310" y="480" as="targetPoint" />
          </mxGeometry>
        </mxCell>
        <mxCell id="WuoT_bfYGDwhzo_1uAU9-107" value="Imprimir(del prodcuto)&lt;div&gt;Nombre, cantidad, peso, precio, tiempo, demanda&lt;/div&gt;" style="rounded=1;whiteSpace=wrap;html=1;" vertex="1" parent="1">
          <mxGeometry x="340" y="630" width="120" height="100" as="geometry" />
        </mxCell>
        <mxCell id="WuoT_bfYGDwhzo_1uAU9-110" value="&lt;font style=&quot;font-size: 10px;&quot;&gt;i &amp;lt; total_productos?&lt;/font&gt;" style="rhombus;whiteSpace=wrap;html=1;" vertex="1" parent="1">
          <mxGeometry x="200" y="520" width="125" height="40" as="geometry" />
        </mxCell>
        <mxCell id="WuoT_bfYGDwhzo_1uAU9-113" value="" style="endArrow=classic;html=1;rounded=0;exitX=0.5;exitY=1;exitDx=0;exitDy=0;entryX=0.5;entryY=0;entryDx=0;entryDy=0;" edge="1" parent="1" source="WuoT_bfYGDwhzo_1uAU9-103" target="WuoT_bfYGDwhzo_1uAU9-110">
          <mxGeometry width="50" height="50" relative="1" as="geometry">
            <mxPoint x="260" y="550" as="sourcePoint" />
            <mxPoint x="310" y="500" as="targetPoint" />
          </mxGeometry>
        </mxCell>
        <mxCell id="WuoT_bfYGDwhzo_1uAU9-115" value="NO" style="text;html=1;align=center;verticalAlign=middle;whiteSpace=wrap;rounded=0;" vertex="1" parent="1">
          <mxGeometry x="340" y="520" width="60" height="30" as="geometry" />
        </mxCell>
        <mxCell id="WuoT_bfYGDwhzo_1uAU9-116" value="Calcular demanda" style="rounded=1;whiteSpace=wrap;html=1;" vertex="1" parent="1">
          <mxGeometry x="352.5" y="560" width="95" height="35" as="geometry" />
        </mxCell>
        <mxCell id="WuoT_bfYGDwhzo_1uAU9-117" value="" style="endArrow=classic;html=1;rounded=0;exitX=1;exitY=0.5;exitDx=0;exitDy=0;entryX=0.5;entryY=0;entryDx=0;entryDy=0;" edge="1" parent="1" source="WuoT_bfYGDwhzo_1uAU9-110" target="WuoT_bfYGDwhzo_1uAU9-116">
          <mxGeometry width="50" height="50" relative="1" as="geometry">
            <mxPoint x="260" y="550" as="sourcePoint" />
            <mxPoint x="310" y="500" as="targetPoint" />
            <Array as="points">
              <mxPoint x="375" y="540" />
              <mxPoint x="400" y="540" />
            </Array>
          </mxGeometry>
        </mxCell>
        <mxCell id="WuoT_bfYGDwhzo_1uAU9-118" value="" style="endArrow=classic;html=1;rounded=0;exitX=0.5;exitY=1;exitDx=0;exitDy=0;entryX=0.5;entryY=0;entryDx=0;entryDy=0;" edge="1" parent="1" source="WuoT_bfYGDwhzo_1uAU9-116" target="WuoT_bfYGDwhzo_1uAU9-107">
          <mxGeometry width="50" height="50" relative="1" as="geometry">
            <mxPoint x="260" y="550" as="sourcePoint" />
            <mxPoint x="374" y="627" as="targetPoint" />
          </mxGeometry>
        </mxCell>
        <mxCell id="WuoT_bfYGDwhzo_1uAU9-119" value="" style="endArrow=classic;html=1;rounded=0;exitX=0;exitY=0.5;exitDx=0;exitDy=0;entryX=0.5;entryY=1;entryDx=0;entryDy=0;" edge="1" parent="1" source="WuoT_bfYGDwhzo_1uAU9-107" target="WuoT_bfYGDwhzo_1uAU9-110">
          <mxGeometry width="50" height="50" relative="1" as="geometry">
            <mxPoint x="260" y="620" as="sourcePoint" />
            <mxPoint x="310" y="570" as="targetPoint" />
            <Array as="points">
              <mxPoint x="260" y="680" />
            </Array>
          </mxGeometry>
        </mxCell>
        <mxCell id="WuoT_bfYGDwhzo_1uAU9-120" value="i+1" style="text;html=1;align=center;verticalAlign=middle;whiteSpace=wrap;rounded=0;" vertex="1" parent="1">
          <mxGeometry x="285" y="660" width="60" height="30" as="geometry" />
        </mxCell>
        <mxCell id="WuoT_bfYGDwhzo_1uAU9-121" value="" style="endArrow=classic;html=1;rounded=0;exitX=0;exitY=0.5;exitDx=0;exitDy=0;" edge="1" parent="1" source="WuoT_bfYGDwhzo_1uAU9-110">
          <mxGeometry width="50" height="50" relative="1" as="geometry">
            <mxPoint x="260" y="620" as="sourcePoint" />
            <mxPoint x="30" y="430" as="targetPoint" />
            <Array as="points">
              <mxPoint x="30" y="540" />
            </Array>
          </mxGeometry>
        </mxCell>
        <mxCell id="WuoT_bfYGDwhzo_1uAU9-122" value="SI" style="text;html=1;align=center;verticalAlign=middle;whiteSpace=wrap;rounded=0;" vertex="1" parent="1">
          <mxGeometry x="160" y="520" width="60" height="30" as="geometry" />
        </mxCell>
        <mxCell id="WuoT_bfYGDwhzo_1uAU9-123" value="&quot;Saliendo&quot;" style="rounded=1;whiteSpace=wrap;html=1;" vertex="1" parent="1">
          <mxGeometry x="195" y="740" width="90" height="40" as="geometry" />
        </mxCell>
        <mxCell id="WuoT_bfYGDwhzo_1uAU9-124" value="" style="endArrow=classic;html=1;rounded=0;exitX=1;exitY=0.5;exitDx=0;exitDy=0;entryX=0;entryY=0.5;entryDx=0;entryDy=0;" edge="1" parent="1" source="WuoT_bfYGDwhzo_1uAU9-43" target="WuoT_bfYGDwhzo_1uAU9-123">
          <mxGeometry width="50" height="50" relative="1" as="geometry">
            <mxPoint x="260" y="690" as="sourcePoint" />
            <mxPoint x="310" y="640" as="targetPoint" />
          </mxGeometry>
        </mxCell>
        <mxCell id="WuoT_bfYGDwhzo_1uAU9-125" value="&lt;span style=&quot;font-size: 9px;&quot;&gt;Opc x&lt;/span&gt;" style="rhombus;whiteSpace=wrap;html=1;" vertex="1" parent="1">
          <mxGeometry x="80" y="840" width="80" height="40" as="geometry" />
        </mxCell>
        <mxCell id="WuoT_bfYGDwhzo_1uAU9-126" value="" style="endArrow=classic;html=1;rounded=0;entryX=0;entryY=0.5;entryDx=0;entryDy=0;" edge="1" parent="1" target="WuoT_bfYGDwhzo_1uAU9-125">
          <mxGeometry width="50" height="50" relative="1" as="geometry">
            <mxPoint x="40" y="760" as="sourcePoint" />
            <mxPoint x="40" y="860" as="targetPoint" />
            <Array as="points">
              <mxPoint x="40" y="860" />
            </Array>
          </mxGeometry>
        </mxCell>
        <mxCell id="WuoT_bfYGDwhzo_1uAU9-127" value="" style="endArrow=classic;html=1;rounded=0;exitX=0.5;exitY=1;exitDx=0;exitDy=0;entryX=0.538;entryY=0.012;entryDx=0;entryDy=0;entryPerimeter=0;" edge="1" parent="1" source="WuoT_bfYGDwhzo_1uAU9-123" target="WuoT_bfYGDwhzo_1uAU9-36">
          <mxGeometry width="50" height="50" relative="1" as="geometry">
            <mxPoint x="210" y="870" as="sourcePoint" />
            <mxPoint x="240" y="960" as="targetPoint" />
            <Array as="points">
              <mxPoint x="240" y="990" />
              <mxPoint x="85" y="990" />
            </Array>
          </mxGeometry>
        </mxCell>
        <mxCell id="WuoT_bfYGDwhzo_1uAU9-128" value="Error: &quot;Opcion Invalida, Intente nuevamente&quot;" style="rounded=1;whiteSpace=wrap;html=1;" vertex="1" parent="1">
          <mxGeometry x="60" y="910" width="120" height="60" as="geometry" />
        </mxCell>
        <mxCell id="WuoT_bfYGDwhzo_1uAU9-130" value="" style="endArrow=classic;html=1;rounded=0;exitX=0.5;exitY=1;exitDx=0;exitDy=0;entryX=0.5;entryY=0;entryDx=0;entryDy=0;" edge="1" parent="1" source="WuoT_bfYGDwhzo_1uAU9-125" target="WuoT_bfYGDwhzo_1uAU9-128">
          <mxGeometry width="50" height="50" relative="1" as="geometry">
            <mxPoint x="190" y="980" as="sourcePoint" />
            <mxPoint x="240" y="930" as="targetPoint" />
          </mxGeometry>
        </mxCell>
        <mxCell id="WuoT_bfYGDwhzo_1uAU9-131" value="" style="endArrow=classic;html=1;rounded=0;exitX=0;exitY=0.5;exitDx=0;exitDy=0;" edge="1" parent="1" source="WuoT_bfYGDwhzo_1uAU9-128">
          <mxGeometry width="50" height="50" relative="1" as="geometry">
            <mxPoint x="230" y="940" as="sourcePoint" />
            <mxPoint x="30" y="540" as="targetPoint" />
            <Array as="points">
              <mxPoint x="20" y="940" />
            </Array>
          </mxGeometry>
        </mxCell>
      </root>
    </mxGraphModel>
  </diagram>
</mxfile>
